<svg width='200' height='200' fill="#000000" xmlns="http://www.w3.org/2000/svg" xmlns:xlink="http://www.w3.org/1999/xlink" version="1.1" x="0px" y="0px" viewBox="0 0 100 100" style="enable-background:new 0 0 100 100;" xml:space="preserve"><path d="M91.399,5H8.601C6.611,5,5,6.611,5,8.601v82.799C5,93.387,6.611,95,8.601,95h82.799C93.387,95,95,93.387,95,91.399V8.601  C95,6.611,93.387,5,91.399,5z M27.5,80c-4.143,0-7.5-3.357-7.5-7.5s3.357-7.5,7.5-7.5s7.5,3.357,7.5,7.5S31.643,80,27.5,80z   M27.5,35c-4.143,0-7.5-3.357-7.5-7.5s3.357-7.5,7.5-7.5s7.5,3.357,7.5,7.5S31.643,35,27.5,35z M72.5,80c-4.143,0-7.5-3.357-7.5-7.5  s3.357-7.5,7.5-7.5s7.5,3.357,7.5,7.5S76.643,80,72.5,80z M72.5,35c-4.143,0-7.5-3.357-7.5-7.5s3.357-7.5,7.5-7.5s7.5,3.357,7.5,7.5  S76.643,35,72.5,35z"/></svg>